<?xml version="1.0" encoding="utf-8"?>
<!-- Generator: Adobe Illustrator 19.1.0, SVG Export Plug-In . SVG Version: 6.00 Build 0)  -->
<svg version="1.1" id="Layer_1" xmlns="http://www.w3.org/2000/svg" xmlns:xlink="http://www.w3.org/1999/xlink" x="0px" y="0px"
	 viewBox="0 0 70 62.5" style="enable-background:new 0 0 70 62.5;" xml:space="preserve">
<g>
	<path d="M70,14h-0.5l0.2-0.5L40.7,0l-0.2,0.5L40.3,0l-40,17l0.2,0.5H0v9h0.5l0.1,0.5l0.5-0.1v29.8h0.5l-0.1,0.5l38.8,5.3l0.1-0.5
		l0.1,0.5l29-4.5l-0.1-0.5H70V14z M69,14.3V57l-20.4,3.2V44.4h-0.5l0-0.5l-7.5-0.2V1.1L69,14.3z M2.2,35.2l16.6-1.8v10.8L2.2,44.3
		V35.2z M40.4,43.7l-20.6,0.2V21.5h-0.5L19.1,21L1,25.8v-8L40.4,1.1V43.7z M10.4,44.7v12.6l-8.2-1.1V44.8L10.4,44.7z M10.9,44.7
		l8.4-0.1l0,0.3l6.4-0.1v14.6l-14.7-2V44.7z M26.1,44.8l14.1-0.1v16.7l-14.1-1.9V44.8z M40.8,44.7l6.8,0.2v15.5l-6.8,1.1V44.7z
		 M18.8,22.1v10.8L2.2,34.7v-8.1L18.8,22.1z"/>
	<path d="M62,56.2l4.6-0.8L66.5,55H67V16.8h-0.5l0.2-0.5L62,14.8l-0.2,0.5h-0.5v40.4h0.5L62,56.2z M62.4,28.9l3.6,0.3v13.8l-3.6,0.3
		V28.9z M62.4,28.4V16l3.6,1.2v11.6L62.4,28.4z M62.4,43.8l3.6-0.3v11l-3.6,0.6V43.8z"/>
</g>
</svg>
