<?xml version="1.0" encoding="utf-8"?>
<!-- Generator: Adobe Illustrator 19.1.0, SVG Export Plug-In . SVG Version: 6.00 Build 0)  -->
<svg version="1.1" id="Layer_1" xmlns="http://www.w3.org/2000/svg" xmlns:xlink="http://www.w3.org/1999/xlink" x="0px" y="0px"
	 viewBox="0 0 70 62.5" style="enable-background:new 0 0 70 62.5;" xml:space="preserve">
<style type="text/css">
	.st0{fill:#FFFFFF;}
</style>
<g>
	<g id="XMLID_1_">
		<g>
			<polygon class="st0" points="66,43.6 66,54.5 62.4,55.1 62.4,43.8 			"/>
			<polygon class="st0" points="66,29.2 66,43.1 62.4,43.3 62.4,28.9 			"/>
			<polygon class="st0" points="66,17.2 66,28.7 62.4,28.4 62.4,16 			"/>
			<polygon class="st0" points="18.8,22.1 18.8,32.9 2.2,34.7 2.2,26.5 			"/>
			<polygon class="st0" points="18.8,33.4 18.8,44.1 2.2,44.3 2.2,35.2 			"/>
			<polygon class="st0" points="10.4,44.7 10.4,57.3 2.2,56.2 2.2,44.8 			"/>
			<polygon class="st0" points="25.6,44.8 25.6,59.4 10.9,57.4 10.9,44.7 19.2,44.6 19.2,44.9 			"/>
			<polygon class="st0" points="40.2,44.7 40.2,61.4 26.1,59.5 26.1,44.8 			"/>
			<polygon class="st0" points="47.6,44.9 47.6,60.3 40.8,61.4 40.8,44.7 			"/>
			<path class="st0" d="M62,56.2l4.6-0.8L66.5,55H67V16.8h-0.5l0.2-0.5L62,14.8l-0.1,0.5h-0.5v40.4h0.5L62,56.2z M69,57l-20.4,3.2
				V44.4h-0.5l0-0.5l-7.5-0.2V1.1L69,14.3V57z"/>
			<polygon class="st0" points="40.4,1.1 40.4,43.7 19.8,43.9 19.8,21.5 19.2,21.5 19.1,21 1,25.8 1,17.8 			"/>
		</g>
		<g>
		</g>
	</g>
</g>
</svg>
